<mxfile host="Electron" modified="2024-03-19T19:15:23.378Z" agent="Mozilla/5.0 (Windows NT 10.0; Win64; x64) AppleWebKit/537.36 (KHTML, like Gecko) draw.io/23.0.2 Chrome/120.0.6099.109 Electron/28.1.0 Safari/537.36" etag="IVlmdipiRMINfrhKa1f6" version="23.0.2" type="device">
  <diagram name="Страница — 1" id="O120US15Bw3j-c6-dZLZ">
    <mxGraphModel dx="1646" dy="836" grid="0" gridSize="10" guides="1" tooltips="1" connect="1" arrows="1" fold="1" page="1" pageScale="1" pageWidth="4681" pageHeight="3300" math="0" shadow="0">
      <root>
        <mxCell id="0" />
        <mxCell id="1" parent="0" />
        <mxCell id="S4Pdk4yIE1fEne1OGQnm-3" value="" style="edgeStyle=orthogonalEdgeStyle;rounded=0;orthogonalLoop=1;jettySize=auto;html=1;" edge="1" parent="1" source="S4Pdk4yIE1fEne1OGQnm-1" target="S4Pdk4yIE1fEne1OGQnm-2">
          <mxGeometry relative="1" as="geometry" />
        </mxCell>
        <mxCell id="S4Pdk4yIE1fEne1OGQnm-1" value="string* deletefroma(string *a, int&amp;amp;N) {" style="ellipse;whiteSpace=wrap;html=1;" vertex="1" parent="1">
          <mxGeometry x="320" y="80" width="120" height="80" as="geometry" />
        </mxCell>
        <mxCell id="S4Pdk4yIE1fEne1OGQnm-5" value="" style="edgeStyle=orthogonalEdgeStyle;rounded=0;orthogonalLoop=1;jettySize=auto;html=1;" edge="1" parent="1" source="S4Pdk4yIE1fEne1OGQnm-2" target="S4Pdk4yIE1fEne1OGQnm-4">
          <mxGeometry relative="1" as="geometry" />
        </mxCell>
        <mxCell id="S4Pdk4yIE1fEne1OGQnm-2" value="int count = 0;" style="whiteSpace=wrap;html=1;" vertex="1" parent="1">
          <mxGeometry x="320" y="180" width="120" height="20" as="geometry" />
        </mxCell>
        <mxCell id="S4Pdk4yIE1fEne1OGQnm-7" value="" style="edgeStyle=orthogonalEdgeStyle;rounded=0;orthogonalLoop=1;jettySize=auto;html=1;" edge="1" parent="1" source="S4Pdk4yIE1fEne1OGQnm-4" target="S4Pdk4yIE1fEne1OGQnm-6">
          <mxGeometry relative="1" as="geometry" />
        </mxCell>
        <mxCell id="S4Pdk4yIE1fEne1OGQnm-21" value="" style="edgeStyle=orthogonalEdgeStyle;rounded=0;orthogonalLoop=1;jettySize=auto;html=1;" edge="1" parent="1" source="S4Pdk4yIE1fEne1OGQnm-4" target="S4Pdk4yIE1fEne1OGQnm-20">
          <mxGeometry relative="1" as="geometry" />
        </mxCell>
        <mxCell id="S4Pdk4yIE1fEne1OGQnm-4" value="for (int i = 0; i &amp;lt; N; i++) {" style="shape=hexagon;perimeter=hexagonPerimeter2;whiteSpace=wrap;html=1;fixedSize=1;" vertex="1" parent="1">
          <mxGeometry x="290" y="220" width="180" height="30" as="geometry" />
        </mxCell>
        <mxCell id="S4Pdk4yIE1fEne1OGQnm-9" value="" style="edgeStyle=orthogonalEdgeStyle;rounded=0;orthogonalLoop=1;jettySize=auto;html=1;" edge="1" parent="1" source="S4Pdk4yIE1fEne1OGQnm-6" target="S4Pdk4yIE1fEne1OGQnm-8">
          <mxGeometry relative="1" as="geometry" />
        </mxCell>
        <mxCell id="S4Pdk4yIE1fEne1OGQnm-6" value="int end_index = a[i].length() -1;" style="whiteSpace=wrap;html=1;" vertex="1" parent="1">
          <mxGeometry x="290" y="270" width="180" height="30" as="geometry" />
        </mxCell>
        <mxCell id="S4Pdk4yIE1fEne1OGQnm-11" value="" style="edgeStyle=orthogonalEdgeStyle;rounded=0;orthogonalLoop=1;jettySize=auto;html=1;" edge="1" parent="1" source="S4Pdk4yIE1fEne1OGQnm-8" target="S4Pdk4yIE1fEne1OGQnm-10">
          <mxGeometry relative="1" as="geometry" />
        </mxCell>
        <mxCell id="S4Pdk4yIE1fEne1OGQnm-19" style="edgeStyle=orthogonalEdgeStyle;rounded=0;orthogonalLoop=1;jettySize=auto;html=1;exitX=1;exitY=0.5;exitDx=0;exitDy=0;" edge="1" parent="1" source="S4Pdk4yIE1fEne1OGQnm-8">
          <mxGeometry relative="1" as="geometry">
            <mxPoint x="380" y="630" as="targetPoint" />
            <Array as="points">
              <mxPoint x="610" y="365" />
              <mxPoint x="610" y="580" />
              <mxPoint x="381" y="580" />
            </Array>
          </mxGeometry>
        </mxCell>
        <mxCell id="S4Pdk4yIE1fEne1OGQnm-8" value="if ((a[i][0] == &#39;A&#39; || a[i][0] == &#39;a&#39;) &amp;amp;&amp;amp;&lt;br&gt;(a[i][end_index] == &#39;A&#39; || a[i][end_index] == &#39;a&#39;)) {" style="rhombus;whiteSpace=wrap;html=1;" vertex="1" parent="1">
          <mxGeometry x="210" y="330" width="340" height="70" as="geometry" />
        </mxCell>
        <mxCell id="S4Pdk4yIE1fEne1OGQnm-13" value="" style="edgeStyle=orthogonalEdgeStyle;rounded=0;orthogonalLoop=1;jettySize=auto;html=1;" edge="1" parent="1" source="S4Pdk4yIE1fEne1OGQnm-10" target="S4Pdk4yIE1fEne1OGQnm-12">
          <mxGeometry relative="1" as="geometry" />
        </mxCell>
        <mxCell id="S4Pdk4yIE1fEne1OGQnm-10" value="string tmp = a[count];" style="whiteSpace=wrap;html=1;" vertex="1" parent="1">
          <mxGeometry x="80" y="440" width="120" height="20" as="geometry" />
        </mxCell>
        <mxCell id="S4Pdk4yIE1fEne1OGQnm-15" value="" style="edgeStyle=orthogonalEdgeStyle;rounded=0;orthogonalLoop=1;jettySize=auto;html=1;" edge="1" parent="1" source="S4Pdk4yIE1fEne1OGQnm-12" target="S4Pdk4yIE1fEne1OGQnm-14">
          <mxGeometry relative="1" as="geometry" />
        </mxCell>
        <mxCell id="S4Pdk4yIE1fEne1OGQnm-12" value="a[count] = a[i];" style="whiteSpace=wrap;html=1;" vertex="1" parent="1">
          <mxGeometry x="80" y="470" width="120" height="20" as="geometry" />
        </mxCell>
        <mxCell id="S4Pdk4yIE1fEne1OGQnm-17" value="" style="edgeStyle=orthogonalEdgeStyle;rounded=0;orthogonalLoop=1;jettySize=auto;html=1;" edge="1" parent="1" source="S4Pdk4yIE1fEne1OGQnm-14" target="S4Pdk4yIE1fEne1OGQnm-16">
          <mxGeometry relative="1" as="geometry" />
        </mxCell>
        <mxCell id="S4Pdk4yIE1fEne1OGQnm-14" value="a[i] = tmp;" style="whiteSpace=wrap;html=1;" vertex="1" parent="1">
          <mxGeometry x="80" y="500" width="120" height="20" as="geometry" />
        </mxCell>
        <mxCell id="S4Pdk4yIE1fEne1OGQnm-18" style="edgeStyle=orthogonalEdgeStyle;rounded=0;orthogonalLoop=1;jettySize=auto;html=1;entryX=0;entryY=0.5;entryDx=0;entryDy=0;" edge="1" parent="1" source="S4Pdk4yIE1fEne1OGQnm-16" target="S4Pdk4yIE1fEne1OGQnm-4">
          <mxGeometry relative="1" as="geometry">
            <mxPoint x="90" y="240" as="targetPoint" />
            <Array as="points">
              <mxPoint x="140" y="580" />
              <mxPoint x="380" y="580" />
              <mxPoint x="380" y="630" />
              <mxPoint x="50" y="630" />
              <mxPoint x="50" y="235" />
            </Array>
          </mxGeometry>
        </mxCell>
        <mxCell id="S4Pdk4yIE1fEne1OGQnm-16" value="count++;" style="whiteSpace=wrap;html=1;" vertex="1" parent="1">
          <mxGeometry x="80" y="530" width="120" height="20" as="geometry" />
        </mxCell>
        <mxCell id="S4Pdk4yIE1fEne1OGQnm-23" value="" style="edgeStyle=orthogonalEdgeStyle;rounded=0;orthogonalLoop=1;jettySize=auto;html=1;" edge="1" parent="1" source="S4Pdk4yIE1fEne1OGQnm-20" target="S4Pdk4yIE1fEne1OGQnm-22">
          <mxGeometry relative="1" as="geometry" />
        </mxCell>
        <mxCell id="S4Pdk4yIE1fEne1OGQnm-20" value="N = N - count;" style="whiteSpace=wrap;html=1;" vertex="1" parent="1">
          <mxGeometry x="790" y="280" width="120" height="30" as="geometry" />
        </mxCell>
        <mxCell id="S4Pdk4yIE1fEne1OGQnm-25" value="" style="edgeStyle=orthogonalEdgeStyle;rounded=0;orthogonalLoop=1;jettySize=auto;html=1;" edge="1" parent="1" source="S4Pdk4yIE1fEne1OGQnm-22" target="S4Pdk4yIE1fEne1OGQnm-24">
          <mxGeometry relative="1" as="geometry" />
        </mxCell>
        <mxCell id="S4Pdk4yIE1fEne1OGQnm-22" value="string *result = new string[N];" style="whiteSpace=wrap;html=1;" vertex="1" parent="1">
          <mxGeometry x="750" y="330" width="200" height="40" as="geometry" />
        </mxCell>
        <mxCell id="S4Pdk4yIE1fEne1OGQnm-29" value="" style="edgeStyle=orthogonalEdgeStyle;rounded=0;orthogonalLoop=1;jettySize=auto;html=1;" edge="1" parent="1" source="S4Pdk4yIE1fEne1OGQnm-24" target="S4Pdk4yIE1fEne1OGQnm-28">
          <mxGeometry relative="1" as="geometry" />
        </mxCell>
        <mxCell id="S4Pdk4yIE1fEne1OGQnm-32" value="" style="edgeStyle=orthogonalEdgeStyle;rounded=0;orthogonalLoop=1;jettySize=auto;html=1;" edge="1" parent="1" source="S4Pdk4yIE1fEne1OGQnm-24" target="S4Pdk4yIE1fEne1OGQnm-31">
          <mxGeometry relative="1" as="geometry" />
        </mxCell>
        <mxCell id="S4Pdk4yIE1fEne1OGQnm-24" value="for (int i = 0; i &amp;lt; N; i++) {" style="shape=hexagon;perimeter=hexagonPerimeter2;whiteSpace=wrap;html=1;fixedSize=1;" vertex="1" parent="1">
          <mxGeometry x="700" y="400" width="300" height="40" as="geometry" />
        </mxCell>
        <mxCell id="S4Pdk4yIE1fEne1OGQnm-26" value="}" style="text;html=1;align=center;verticalAlign=middle;resizable=0;points=[];autosize=1;strokeColor=none;fillColor=none;" vertex="1" parent="1">
          <mxGeometry x="385" y="598" width="30" height="30" as="geometry" />
        </mxCell>
        <mxCell id="S4Pdk4yIE1fEne1OGQnm-27" value="}" style="text;html=1;align=center;verticalAlign=middle;resizable=0;points=[];autosize=1;strokeColor=none;fillColor=none;" vertex="1" parent="1">
          <mxGeometry x="115" y="558" width="30" height="30" as="geometry" />
        </mxCell>
        <mxCell id="S4Pdk4yIE1fEne1OGQnm-30" style="edgeStyle=orthogonalEdgeStyle;rounded=0;orthogonalLoop=1;jettySize=auto;html=1;entryX=0;entryY=0.5;entryDx=0;entryDy=0;" edge="1" parent="1" source="S4Pdk4yIE1fEne1OGQnm-28" target="S4Pdk4yIE1fEne1OGQnm-24">
          <mxGeometry relative="1" as="geometry">
            <Array as="points">
              <mxPoint x="850" y="500" />
              <mxPoint x="680" y="500" />
              <mxPoint x="680" y="420" />
            </Array>
          </mxGeometry>
        </mxCell>
        <mxCell id="S4Pdk4yIE1fEne1OGQnm-28" value="result[i] = a[i+count];" style="whiteSpace=wrap;html=1;" vertex="1" parent="1">
          <mxGeometry x="790" y="460" width="120" height="20" as="geometry" />
        </mxCell>
        <mxCell id="S4Pdk4yIE1fEne1OGQnm-31" value="return result;" style="ellipse;whiteSpace=wrap;html=1;" vertex="1" parent="1">
          <mxGeometry x="1010" y="520" width="100" height="50" as="geometry" />
        </mxCell>
        <mxCell id="S4Pdk4yIE1fEne1OGQnm-35" value="" style="edgeStyle=orthogonalEdgeStyle;rounded=0;orthogonalLoop=1;jettySize=auto;html=1;" edge="1" parent="1" source="S4Pdk4yIE1fEne1OGQnm-33" target="S4Pdk4yIE1fEne1OGQnm-34">
          <mxGeometry relative="1" as="geometry" />
        </mxCell>
        <mxCell id="S4Pdk4yIE1fEne1OGQnm-33" value="int main() {" style="ellipse;whiteSpace=wrap;html=1;" vertex="1" parent="1">
          <mxGeometry x="1440" y="160" width="120" height="80" as="geometry" />
        </mxCell>
        <mxCell id="S4Pdk4yIE1fEne1OGQnm-37" value="" style="edgeStyle=orthogonalEdgeStyle;rounded=0;orthogonalLoop=1;jettySize=auto;html=1;" edge="1" parent="1" source="S4Pdk4yIE1fEne1OGQnm-34" target="S4Pdk4yIE1fEne1OGQnm-36">
          <mxGeometry relative="1" as="geometry" />
        </mxCell>
        <mxCell id="S4Pdk4yIE1fEne1OGQnm-34" value="setlocale(LC_ALL, &quot;RU&quot;);" style="whiteSpace=wrap;html=1;" vertex="1" parent="1">
          <mxGeometry x="1420" y="270" width="160" height="30" as="geometry" />
        </mxCell>
        <mxCell id="S4Pdk4yIE1fEne1OGQnm-39" value="" style="edgeStyle=orthogonalEdgeStyle;rounded=0;orthogonalLoop=1;jettySize=auto;html=1;" edge="1" parent="1" source="S4Pdk4yIE1fEne1OGQnm-36" target="S4Pdk4yIE1fEne1OGQnm-38">
          <mxGeometry relative="1" as="geometry" />
        </mxCell>
        <mxCell id="S4Pdk4yIE1fEne1OGQnm-36" value="system(&quot;chcp 1251&amp;gt;Null&quot;);" style="whiteSpace=wrap;html=1;" vertex="1" parent="1">
          <mxGeometry x="1420" y="320" width="160" height="30" as="geometry" />
        </mxCell>
        <mxCell id="S4Pdk4yIE1fEne1OGQnm-41" value="" style="edgeStyle=orthogonalEdgeStyle;rounded=0;orthogonalLoop=1;jettySize=auto;html=1;" edge="1" parent="1" source="S4Pdk4yIE1fEne1OGQnm-38" target="S4Pdk4yIE1fEne1OGQnm-40">
          <mxGeometry relative="1" as="geometry" />
        </mxCell>
        <mxCell id="S4Pdk4yIE1fEne1OGQnm-38" value="int N = 0;" style="whiteSpace=wrap;html=1;" vertex="1" parent="1">
          <mxGeometry x="1420" y="370" width="160" height="30" as="geometry" />
        </mxCell>
        <mxCell id="S4Pdk4yIE1fEne1OGQnm-48" value="" style="edgeStyle=orthogonalEdgeStyle;rounded=0;orthogonalLoop=1;jettySize=auto;html=1;" edge="1" parent="1" source="S4Pdk4yIE1fEne1OGQnm-40" target="S4Pdk4yIE1fEne1OGQnm-47">
          <mxGeometry relative="1" as="geometry" />
        </mxCell>
        <mxCell id="S4Pdk4yIE1fEne1OGQnm-40" value="cout&amp;lt;&amp;lt;&quot;Enter the number of elements: &quot;;" style="shape=parallelogram;perimeter=parallelogramPerimeter;whiteSpace=wrap;html=1;fixedSize=1;" vertex="1" parent="1">
          <mxGeometry x="1350" y="420" width="300" height="30" as="geometry" />
        </mxCell>
        <mxCell id="S4Pdk4yIE1fEne1OGQnm-45" value="" style="edgeStyle=orthogonalEdgeStyle;rounded=0;orthogonalLoop=1;jettySize=auto;html=1;" edge="1" parent="1" source="S4Pdk4yIE1fEne1OGQnm-42" target="S4Pdk4yIE1fEne1OGQnm-44">
          <mxGeometry relative="1" as="geometry" />
        </mxCell>
        <mxCell id="S4Pdk4yIE1fEne1OGQnm-67" value="" style="edgeStyle=orthogonalEdgeStyle;rounded=0;orthogonalLoop=1;jettySize=auto;html=1;" edge="1" parent="1" source="S4Pdk4yIE1fEne1OGQnm-42" target="S4Pdk4yIE1fEne1OGQnm-66">
          <mxGeometry relative="1" as="geometry" />
        </mxCell>
        <mxCell id="S4Pdk4yIE1fEne1OGQnm-42" value="while(fl == &quot;&quot;) {" style="rhombus;whiteSpace=wrap;html=1;" vertex="1" parent="1">
          <mxGeometry x="1670" y="830" width="120" height="60" as="geometry" />
        </mxCell>
        <mxCell id="S4Pdk4yIE1fEne1OGQnm-46" style="edgeStyle=orthogonalEdgeStyle;rounded=0;orthogonalLoop=1;jettySize=auto;html=1;entryX=0.5;entryY=0;entryDx=0;entryDy=0;" edge="1" parent="1" source="S4Pdk4yIE1fEne1OGQnm-44" target="S4Pdk4yIE1fEne1OGQnm-42">
          <mxGeometry relative="1" as="geometry">
            <Array as="points">
              <mxPoint x="1730" y="960" />
              <mxPoint x="1650" y="960" />
              <mxPoint x="1650" y="830" />
            </Array>
          </mxGeometry>
        </mxCell>
        <mxCell id="S4Pdk4yIE1fEne1OGQnm-44" value="getline(cin, fl);" style="shape=process;whiteSpace=wrap;html=1;backgroundOutline=1;" vertex="1" parent="1">
          <mxGeometry x="1670" y="910" width="120" height="30" as="geometry" />
        </mxCell>
        <mxCell id="S4Pdk4yIE1fEne1OGQnm-52" value="" style="edgeStyle=orthogonalEdgeStyle;rounded=0;orthogonalLoop=1;jettySize=auto;html=1;" edge="1" parent="1" source="S4Pdk4yIE1fEne1OGQnm-47" target="S4Pdk4yIE1fEne1OGQnm-51">
          <mxGeometry relative="1" as="geometry" />
        </mxCell>
        <mxCell id="S4Pdk4yIE1fEne1OGQnm-56" value="" style="edgeStyle=orthogonalEdgeStyle;rounded=0;orthogonalLoop=1;jettySize=auto;html=1;" edge="1" parent="1" source="S4Pdk4yIE1fEne1OGQnm-47" target="S4Pdk4yIE1fEne1OGQnm-55">
          <mxGeometry relative="1" as="geometry" />
        </mxCell>
        <mxCell id="S4Pdk4yIE1fEne1OGQnm-47" value="while(N &amp;lt;= 0)&amp;nbsp; {" style="rhombus;whiteSpace=wrap;html=1;" vertex="1" parent="1">
          <mxGeometry x="1410" y="480" width="180" height="60" as="geometry" />
        </mxCell>
        <mxCell id="S4Pdk4yIE1fEne1OGQnm-53" style="edgeStyle=orthogonalEdgeStyle;rounded=0;orthogonalLoop=1;jettySize=auto;html=1;" edge="1" parent="1" source="S4Pdk4yIE1fEne1OGQnm-51">
          <mxGeometry relative="1" as="geometry">
            <mxPoint x="1500" y="470" as="targetPoint" />
            <Array as="points">
              <mxPoint x="1500" y="600" />
              <mxPoint x="1400" y="600" />
              <mxPoint x="1400" y="470" />
            </Array>
          </mxGeometry>
        </mxCell>
        <mxCell id="S4Pdk4yIE1fEne1OGQnm-51" value="cin&amp;gt;&amp;gt;N;" style="whiteSpace=wrap;html=1;" vertex="1" parent="1">
          <mxGeometry x="1440" y="558" width="120" height="22" as="geometry" />
        </mxCell>
        <mxCell id="S4Pdk4yIE1fEne1OGQnm-54" value="}" style="text;html=1;align=center;verticalAlign=middle;resizable=0;points=[];autosize=1;strokeColor=none;fillColor=none;" vertex="1" parent="1">
          <mxGeometry x="1495" y="578" width="30" height="30" as="geometry" />
        </mxCell>
        <mxCell id="S4Pdk4yIE1fEne1OGQnm-58" value="" style="edgeStyle=orthogonalEdgeStyle;rounded=0;orthogonalLoop=1;jettySize=auto;html=1;" edge="1" parent="1" source="S4Pdk4yIE1fEne1OGQnm-55" target="S4Pdk4yIE1fEne1OGQnm-57">
          <mxGeometry relative="1" as="geometry" />
        </mxCell>
        <mxCell id="S4Pdk4yIE1fEne1OGQnm-55" value="cout&amp;lt;&amp;lt;endl;" style="shape=parallelogram;perimeter=parallelogramPerimeter;whiteSpace=wrap;html=1;fixedSize=1;" vertex="1" parent="1">
          <mxGeometry x="1670" y="548" width="120" height="22" as="geometry" />
        </mxCell>
        <mxCell id="S4Pdk4yIE1fEne1OGQnm-60" value="" style="edgeStyle=orthogonalEdgeStyle;rounded=0;orthogonalLoop=1;jettySize=auto;html=1;" edge="1" parent="1" source="S4Pdk4yIE1fEne1OGQnm-57" target="S4Pdk4yIE1fEne1OGQnm-59">
          <mxGeometry relative="1" as="geometry" />
        </mxCell>
        <mxCell id="S4Pdk4yIE1fEne1OGQnm-57" value="string *a = new string[N];" style="whiteSpace=wrap;html=1;" vertex="1" parent="1">
          <mxGeometry x="1620" y="588" width="220" height="32" as="geometry" />
        </mxCell>
        <mxCell id="S4Pdk4yIE1fEne1OGQnm-62" value="" style="edgeStyle=orthogonalEdgeStyle;rounded=0;orthogonalLoop=1;jettySize=auto;html=1;" edge="1" parent="1" source="S4Pdk4yIE1fEne1OGQnm-59" target="S4Pdk4yIE1fEne1OGQnm-61">
          <mxGeometry relative="1" as="geometry" />
        </mxCell>
        <mxCell id="S4Pdk4yIE1fEne1OGQnm-70" value="" style="edgeStyle=orthogonalEdgeStyle;rounded=0;orthogonalLoop=1;jettySize=auto;html=1;" edge="1" parent="1" source="S4Pdk4yIE1fEne1OGQnm-59" target="S4Pdk4yIE1fEne1OGQnm-69">
          <mxGeometry relative="1" as="geometry" />
        </mxCell>
        <mxCell id="S4Pdk4yIE1fEne1OGQnm-59" value="for (int i = 0; i &amp;lt; N; i++) {" style="shape=hexagon;perimeter=hexagonPerimeter2;whiteSpace=wrap;html=1;fixedSize=1;" vertex="1" parent="1">
          <mxGeometry x="1600" y="650" width="260" height="40" as="geometry" />
        </mxCell>
        <mxCell id="S4Pdk4yIE1fEne1OGQnm-64" value="" style="edgeStyle=orthogonalEdgeStyle;rounded=0;orthogonalLoop=1;jettySize=auto;html=1;" edge="1" parent="1" source="S4Pdk4yIE1fEne1OGQnm-61" target="S4Pdk4yIE1fEne1OGQnm-63">
          <mxGeometry relative="1" as="geometry" />
        </mxCell>
        <mxCell id="S4Pdk4yIE1fEne1OGQnm-61" value="string fl = &quot;&quot;;" style="whiteSpace=wrap;html=1;" vertex="1" parent="1">
          <mxGeometry x="1670" y="710" width="120" height="20" as="geometry" />
        </mxCell>
        <mxCell id="S4Pdk4yIE1fEne1OGQnm-65" value="" style="edgeStyle=orthogonalEdgeStyle;rounded=0;orthogonalLoop=1;jettySize=auto;html=1;" edge="1" parent="1" source="S4Pdk4yIE1fEne1OGQnm-63" target="S4Pdk4yIE1fEne1OGQnm-42">
          <mxGeometry relative="1" as="geometry" />
        </mxCell>
        <mxCell id="S4Pdk4yIE1fEne1OGQnm-63" value="cout&amp;lt;&amp;lt;&quot;Enter the element &quot;&amp;lt;&amp;lt;i + 1&amp;lt;&amp;lt;&quot;: &quot;;" style="shape=parallelogram;perimeter=parallelogramPerimeter;whiteSpace=wrap;html=1;fixedSize=1;" vertex="1" parent="1">
          <mxGeometry x="1580" y="750" width="300" height="30" as="geometry" />
        </mxCell>
        <mxCell id="S4Pdk4yIE1fEne1OGQnm-68" style="edgeStyle=orthogonalEdgeStyle;rounded=0;orthogonalLoop=1;jettySize=auto;html=1;entryX=0;entryY=0.5;entryDx=0;entryDy=0;" edge="1" parent="1" source="S4Pdk4yIE1fEne1OGQnm-66" target="S4Pdk4yIE1fEne1OGQnm-59">
          <mxGeometry relative="1" as="geometry">
            <Array as="points">
              <mxPoint x="1880" y="990" />
              <mxPoint x="1570" y="990" />
              <mxPoint x="1570" y="670" />
            </Array>
          </mxGeometry>
        </mxCell>
        <mxCell id="S4Pdk4yIE1fEne1OGQnm-66" value="a[i] = fl;" style="whiteSpace=wrap;html=1;" vertex="1" parent="1">
          <mxGeometry x="1820" y="910" width="120" height="30" as="geometry" />
        </mxCell>
        <mxCell id="S4Pdk4yIE1fEne1OGQnm-72" value="" style="edgeStyle=orthogonalEdgeStyle;rounded=0;orthogonalLoop=1;jettySize=auto;html=1;" edge="1" parent="1" source="S4Pdk4yIE1fEne1OGQnm-69" target="S4Pdk4yIE1fEne1OGQnm-71">
          <mxGeometry relative="1" as="geometry" />
        </mxCell>
        <mxCell id="S4Pdk4yIE1fEne1OGQnm-69" value="cout&amp;lt;&amp;lt;endl;" style="shape=parallelogram;perimeter=parallelogramPerimeter;whiteSpace=wrap;html=1;fixedSize=1;" vertex="1" parent="1">
          <mxGeometry x="2030" y="710" width="120" height="30" as="geometry" />
        </mxCell>
        <mxCell id="S4Pdk4yIE1fEne1OGQnm-74" value="" style="edgeStyle=orthogonalEdgeStyle;rounded=0;orthogonalLoop=1;jettySize=auto;html=1;" edge="1" parent="1" source="S4Pdk4yIE1fEne1OGQnm-71" target="S4Pdk4yIE1fEne1OGQnm-73">
          <mxGeometry relative="1" as="geometry" />
        </mxCell>
        <mxCell id="S4Pdk4yIE1fEne1OGQnm-77" value="" style="edgeStyle=orthogonalEdgeStyle;rounded=0;orthogonalLoop=1;jettySize=auto;html=1;" edge="1" parent="1" source="S4Pdk4yIE1fEne1OGQnm-71" target="S4Pdk4yIE1fEne1OGQnm-76">
          <mxGeometry relative="1" as="geometry" />
        </mxCell>
        <mxCell id="S4Pdk4yIE1fEne1OGQnm-71" value="for (int i = 0; i &amp;lt; N; i++) {" style="shape=hexagon;perimeter=hexagonPerimeter2;whiteSpace=wrap;html=1;fixedSize=1;" vertex="1" parent="1">
          <mxGeometry x="1970" y="770" width="240" height="30" as="geometry" />
        </mxCell>
        <mxCell id="S4Pdk4yIE1fEne1OGQnm-75" style="edgeStyle=orthogonalEdgeStyle;rounded=0;orthogonalLoop=1;jettySize=auto;html=1;entryX=0;entryY=0.5;entryDx=0;entryDy=0;" edge="1" parent="1" source="S4Pdk4yIE1fEne1OGQnm-73" target="S4Pdk4yIE1fEne1OGQnm-71">
          <mxGeometry relative="1" as="geometry">
            <Array as="points">
              <mxPoint x="2090" y="870" />
              <mxPoint x="1950" y="870" />
              <mxPoint x="1950" y="785" />
            </Array>
          </mxGeometry>
        </mxCell>
        <mxCell id="S4Pdk4yIE1fEne1OGQnm-73" value="cout&amp;lt;&amp;lt;a[i]&amp;lt;&amp;lt;endl;" style="shape=parallelogram;perimeter=parallelogramPerimeter;whiteSpace=wrap;html=1;fixedSize=1;" vertex="1" parent="1">
          <mxGeometry x="2030" y="820" width="120" height="30" as="geometry" />
        </mxCell>
        <mxCell id="S4Pdk4yIE1fEne1OGQnm-79" value="" style="edgeStyle=orthogonalEdgeStyle;rounded=0;orthogonalLoop=1;jettySize=auto;html=1;" edge="1" parent="1" source="S4Pdk4yIE1fEne1OGQnm-76" target="S4Pdk4yIE1fEne1OGQnm-78">
          <mxGeometry relative="1" as="geometry" />
        </mxCell>
        <mxCell id="S4Pdk4yIE1fEne1OGQnm-76" value="cout&amp;lt;&amp;lt;&quot;___________&quot;;" style="shape=parallelogram;perimeter=parallelogramPerimeter;whiteSpace=wrap;html=1;fixedSize=1;" vertex="1" parent="1">
          <mxGeometry x="2240" y="820" width="160" height="30" as="geometry" />
        </mxCell>
        <mxCell id="S4Pdk4yIE1fEne1OGQnm-81" value="" style="edgeStyle=orthogonalEdgeStyle;rounded=0;orthogonalLoop=1;jettySize=auto;html=1;" edge="1" parent="1" source="S4Pdk4yIE1fEne1OGQnm-78" target="S4Pdk4yIE1fEne1OGQnm-80">
          <mxGeometry relative="1" as="geometry" />
        </mxCell>
        <mxCell id="S4Pdk4yIE1fEne1OGQnm-78" value="string *arr = deletefroma(a, N);" style="whiteSpace=wrap;html=1;" vertex="1" parent="1">
          <mxGeometry x="2230" y="880" width="180" height="30" as="geometry" />
        </mxCell>
        <mxCell id="S4Pdk4yIE1fEne1OGQnm-83" value="" style="edgeStyle=orthogonalEdgeStyle;rounded=0;orthogonalLoop=1;jettySize=auto;html=1;" edge="1" parent="1" source="S4Pdk4yIE1fEne1OGQnm-80" target="S4Pdk4yIE1fEne1OGQnm-82">
          <mxGeometry relative="1" as="geometry" />
        </mxCell>
        <mxCell id="S4Pdk4yIE1fEne1OGQnm-86" value="" style="edgeStyle=orthogonalEdgeStyle;rounded=0;orthogonalLoop=1;jettySize=auto;html=1;" edge="1" parent="1" source="S4Pdk4yIE1fEne1OGQnm-80" target="S4Pdk4yIE1fEne1OGQnm-85">
          <mxGeometry relative="1" as="geometry" />
        </mxCell>
        <mxCell id="S4Pdk4yIE1fEne1OGQnm-80" value="for (int i = 0; i &amp;lt; N; i++) {" style="shape=hexagon;perimeter=hexagonPerimeter2;whiteSpace=wrap;html=1;fixedSize=1;" vertex="1" parent="1">
          <mxGeometry x="2220" y="940" width="200" height="30" as="geometry" />
        </mxCell>
        <mxCell id="S4Pdk4yIE1fEne1OGQnm-84" style="edgeStyle=orthogonalEdgeStyle;rounded=0;orthogonalLoop=1;jettySize=auto;html=1;entryX=0;entryY=0.5;entryDx=0;entryDy=0;" edge="1" parent="1" source="S4Pdk4yIE1fEne1OGQnm-82" target="S4Pdk4yIE1fEne1OGQnm-80">
          <mxGeometry relative="1" as="geometry">
            <Array as="points">
              <mxPoint x="2320" y="1040" />
              <mxPoint x="2200" y="1040" />
              <mxPoint x="2200" y="955" />
            </Array>
          </mxGeometry>
        </mxCell>
        <mxCell id="S4Pdk4yIE1fEne1OGQnm-82" value="cout&amp;lt;&amp;lt;a[i]&amp;lt;&amp;lt;endl;" style="shape=parallelogram;perimeter=parallelogramPerimeter;whiteSpace=wrap;html=1;fixedSize=1;" vertex="1" parent="1">
          <mxGeometry x="2260" y="990" width="120" height="30" as="geometry" />
        </mxCell>
        <mxCell id="S4Pdk4yIE1fEne1OGQnm-88" value="" style="edgeStyle=orthogonalEdgeStyle;rounded=0;orthogonalLoop=1;jettySize=auto;html=1;" edge="1" parent="1" source="S4Pdk4yIE1fEne1OGQnm-85" target="S4Pdk4yIE1fEne1OGQnm-87">
          <mxGeometry relative="1" as="geometry" />
        </mxCell>
        <mxCell id="S4Pdk4yIE1fEne1OGQnm-85" value="delete[] arr;" style="whiteSpace=wrap;html=1;" vertex="1" parent="1">
          <mxGeometry x="2470" y="990" width="120" height="30" as="geometry" />
        </mxCell>
        <mxCell id="S4Pdk4yIE1fEne1OGQnm-90" value="" style="edgeStyle=orthogonalEdgeStyle;rounded=0;orthogonalLoop=1;jettySize=auto;html=1;" edge="1" parent="1" source="S4Pdk4yIE1fEne1OGQnm-87" target="S4Pdk4yIE1fEne1OGQnm-89">
          <mxGeometry relative="1" as="geometry" />
        </mxCell>
        <mxCell id="S4Pdk4yIE1fEne1OGQnm-87" value="delete[] a;" style="whiteSpace=wrap;html=1;" vertex="1" parent="1">
          <mxGeometry x="2470" y="1040" width="120" height="30" as="geometry" />
        </mxCell>
        <mxCell id="S4Pdk4yIE1fEne1OGQnm-89" value="return 0;" style="ellipse;whiteSpace=wrap;html=1;" vertex="1" parent="1">
          <mxGeometry x="2470" y="1110" width="120" height="60" as="geometry" />
        </mxCell>
      </root>
    </mxGraphModel>
  </diagram>
</mxfile>
